<svg width="46" height="46" viewBox="0 0 46 46" fill="none" xmlns="http://www.w3.org/2000/svg">
<path d="M23.0109 42C33.5104 42 42 34.0806 42 23.8633L23.0109 23.868V5.00464C12.5115 5.00464 4 13.2827 4 23.5C4 33.7173 12.5115 42 23.0109 42Z" fill="#6DA544" stroke="#6DA544" stroke-width="2" stroke-miterlimit="10" stroke-linecap="round" stroke-linejoin="round"/>
<path d="M44 20C44 10.6112 36.3888 3 27 3V20H44Z" fill="#67B2FF" stroke="#67B2FF" stroke-width="2" stroke-linecap="round" stroke-linejoin="round"/>
<path d="M31.8 15.2L37.0001 9" stroke="#4480D5" stroke-width="2" stroke-linecap="round" stroke-linejoin="round"/>
<rect x="30" y="8" width="2.7" height="2.7" rx="1" stroke="#4480D5" stroke-width="2"/>
<rect x="36.3" y="13.4" width="2.7" height="2.7" rx="1" stroke="#4480D5" stroke-width="2"/>
<path d="M31.8 16.2L37.0001 10" stroke="white" stroke-width="2" stroke-linecap="round" stroke-linejoin="round"/>
<rect x="30" y="9" width="2.7" height="2.7" rx="1" stroke="white" stroke-width="2"/>
<rect x="36.3" y="14.4" width="2.7" height="2.7" rx="1" stroke="white" stroke-width="2"/>
</svg>
