<svg width="46" height="46" viewBox="0 0 46 46" fill="none" xmlns="http://www.w3.org/2000/svg">
<path fill-rule="evenodd" clip-rule="evenodd" d="M32.2885 25.1156C32.3181 25.0488 32.3416 24.9793 32.3584 24.9078L32.2885 25.1156ZM17.3656 38.5012C17.3253 38.5707 17.276 38.6363 17.2175 38.6965C16.8329 39.0928 16.1998 39.1022 15.8035 38.7175L8.8965 32.0129C8.70218 31.8243 8.59267 31.5649 8.59302 31.2941C8.59337 31.0233 8.70354 30.7642 8.89835 30.5761L16.9636 22.7873C17.5293 21.9999 18.4067 21.4318 19.5587 21.4318H31.1515C32.4508 21.4318 33.5927 22.2166 34.1039 23.3377L39.6001 17.8938C40.8408 16.6649 42.8451 16.7636 44.179 17.8206C44.2078 17.8434 44.2355 17.8679 44.2616 17.8938C45.5083 19.1286 45.4074 21.1291 44.3359 22.4558C44.3127 22.4845 44.2879 22.5119 44.2616 22.5379L34.4993 32.2073L34.4985 32.2081L34.4954 32.2111L34.4895 32.217L34.4712 32.2346C34.4563 32.2489 34.4359 32.2682 34.4103 32.2919C34.3591 32.3392 34.2869 32.4042 34.1962 32.4816C34.0153 32.6356 33.7567 32.8419 33.44 33.0558C32.8246 33.4714 31.9076 33.9721 30.8677 34.1008C30.827 34.1059 30.7859 34.1084 30.7448 34.1084C30.1681 34.1084 28.1192 34.2069 26.17 34.3085C25.2052 34.3588 24.2782 34.4091 23.5924 34.4468C23.2496 34.4657 22.967 34.4814 22.7703 34.4924L22.5198 34.5065C22.4932 34.5116 22.4517 34.5202 22.3972 34.5335C22.2765 34.5627 22.0937 34.6141 21.8694 34.6987C21.4267 34.8657 20.8322 35.1588 20.2342 35.66L17.3656 38.5012Z" fill="#F6CC90"/>
<path fill-rule="evenodd" clip-rule="evenodd" d="M5.24535 29.5917C6.04185 28.8028 7.27995 28.8028 8.07645 29.5917L17.5742 38.999C18.0279 39.3287 18.3519 39.8023 18.4097 40.3747C18.4704 40.9757 18.2192 41.5139 17.8388 41.8907L15.1948 44.5095C14.3998 45.297 13.1647 45.2984 12.368 44.5137L2.60134 35.0416C1.79953 34.2474 1.79957 33.0046 2.60138 32.2105L5.24535 29.5917Z" fill="#4480D5"/>
<path d="M22.5 20.0564C27.7467 20.0564 32 15.7905 32 10.5282C32 5.26592 27.7467 1 22.5 1C17.2533 1 13 5.26592 13 10.5282C13 15.7905 17.2533 20.0564 22.5 20.0564Z" fill="#00E6B2"/>
<path fill-rule="evenodd" clip-rule="evenodd" d="M28.893 5.30551C29.2091 5.62069 29.2099 6.13247 28.8947 6.4486L22.306 13.0569C21.9945 13.3693 21.49 13.3742 21.1725 13.068L17.1886 9.22596C16.8673 8.91608 16.858 8.40438 17.1679 8.08306C17.4778 7.76173 17.9895 7.75246 18.3108 8.06234L21.7225 11.3525L27.7499 5.3072C28.0651 4.99108 28.5769 4.99032 28.893 5.30551Z" fill="#0AC364"/>
<path fill-rule="evenodd" clip-rule="evenodd" d="M28.893 6.1138C29.2091 6.42898 29.2099 6.94076 28.8947 7.25689L22.306 13.8652C21.9945 14.1776 21.49 14.1825 21.1725 13.8763L17.1886 10.0343C16.8673 9.72437 16.858 9.21267 17.1679 8.89135C17.4778 8.57002 17.9895 8.56074 18.3108 8.87063L21.7225 12.1608L27.7499 6.11549C28.0651 5.79937 28.5769 5.79861 28.893 6.1138Z" fill="white"/>
<path d="M44.3 17.9C44.2 17.9 44.2 17.9 44.3 17.9C42.8 16.7 40.8 16.7 39.6 17.9L34.1 23.3329V23.4C34.2 23.7 34.3 24 34.4 24.3C34.4 24.4 34.4 24.6 34.4 24.7C34.4 26.5 32.9 27.9 31.2 27.9H27.8H23.1C23.3 28.3 23.7 28.5 24.1 28.5H26.8H31.7C33.5 28.5 34.9 27.1 34.9 25.3C34.9 24.8 34.8 24.3 34.6 23.9L40.1 18.5C41.2 17.4 43.1 17.3 44.5 18.3C44.5 18.1 44.4 18 44.3 17.9Z" fill="#F7B453"/>
</svg>
