<svg width="46" height="46" viewBox="0 0 46 46" fill="none" xmlns="http://www.w3.org/2000/svg">
<path d="M43 20.5L43 33.9825C43 35.5318 41.6603 37 40.1292 37H5.87081C4.33971 37 3 35.5318 3 33.9825V11.9049C3 10.3556 4.33971 9 5.87081 9H24.4354" fill="#FFDA44"/>
<path d="M43 20.5L43 33.9825C43 35.5318 41.6603 37 40.1292 37H5.87081C4.33971 37 3 35.5318 3 33.9825V11.9049C3 10.3556 4.33971 9 5.87081 9H24.4354" stroke="#FFDA44" stroke-width="2" stroke-miterlimit="10" stroke-linecap="round" stroke-linejoin="round"/>
<path d="M23 15H4H3V21H43V15H23Z" fill="black" stroke="black" stroke-width="2" stroke-miterlimit="10" stroke-linecap="round" stroke-linejoin="round"/>
<path d="M7.10254 26H24.5384" stroke="#CBCBCB" stroke-width="2" stroke-miterlimit="10" stroke-linecap="round" stroke-linejoin="round"/>
<path d="M7.10254 31H16.3333" stroke="#CBCBCB" stroke-width="2" stroke-miterlimit="10" stroke-linecap="round" stroke-linejoin="round"/>
<path d="M33.7562 25.5762C39.6967 25.5762 44.5124 20.7462 44.5124 14.7881C44.5124 8.83001 39.6967 4 33.7562 4C27.8157 4 23 8.83001 23 14.7881C23 20.7462 27.8157 25.5762 33.7562 25.5762Z" fill="#00E6B2" stroke="#00E6B2" stroke-width="2" stroke-miterlimit="10" stroke-linecap="round" stroke-linejoin="round"/>
<path d="M28.3782 12.5701L32.8888 16.9201L40.3488 9.43805" stroke="#0AC364" stroke-width="2" stroke-miterlimit="10" stroke-linecap="round" stroke-linejoin="round"/>
<path d="M28.3781 13.5701L32.8887 17.9202L40.3486 10.4381" stroke="white" stroke-width="2" stroke-miterlimit="10" stroke-linecap="round" stroke-linejoin="round"/>
<path d="M7.10254 32H16.3333" stroke="white" stroke-width="2" stroke-miterlimit="10" stroke-linecap="round" stroke-linejoin="round"/>
<path d="M7.10254 27H24.5384" stroke="white" stroke-width="2" stroke-miterlimit="10" stroke-linecap="round" stroke-linejoin="round"/>
</svg>
