<svg width="46" height="46" viewBox="0 0 46 46" fill="none" xmlns="http://www.w3.org/2000/svg">
<path d="M31.0306 34.8069H13.9694C13.3878 34.8069 13 35.1863 13 35.7552V43.7207C13 44.4794 13.3878 45.238 14.1633 45.6173C14.551 45.8069 14.9388 45.9966 15.3265 45.9966C15.7143 45.9966 16.102 45.8069 16.4898 45.6173L22.6939 42.0138L28.898 45.6173C29.6735 45.9966 30.449 45.9966 31.0306 45.6173C31.8061 45.238 32.1939 44.4794 32.1939 43.7207V35.7552C32 35.1863 31.6122 34.8069 31.0306 34.8069Z" fill="#67B2FF"/>
<path d="M22.9026 38.8069C21.9282 38.8069 20.9538 38.6139 19.9795 38.0346C19.5897 37.8416 19.2 37.4554 18.8103 37.0693C18.0308 36.297 16.6667 35.9109 15.6923 36.104C14.9128 36.297 14.1333 36.297 13.3538 36.104C11.0154 35.5247 9.26154 33.7871 9.06667 31.4703C9.06667 30.8911 8.67692 30.3119 8.48205 29.9257C8.28718 29.7327 8.09231 29.5396 7.89744 29.3465C7.70256 29.1535 7.31282 28.9604 7.11795 28.7673C5.16923 27.802 4 25.8713 4 23.7475C4 22.7822 4.19487 21.8168 4.77949 21.0445C4.97436 20.4653 5.16923 19.8861 5.16923 19.3069C5.16923 18.7277 4.97436 18.1485 4.77949 17.7624C4.19487 16.797 4 15.8317 4 14.8663C4 12.7426 5.16923 10.8119 7.11795 9.84653C7.70256 9.65346 8.09231 9.26733 8.48205 8.68812C8.87179 8.30198 9.06667 7.72277 9.06667 7.14356C9.45641 4.44059 11.7949 2.5099 14.7179 2.5099C15.1077 2.5099 15.4974 2.5099 15.8872 2.70297C17.0564 2.89604 18.2256 2.5099 19.0051 1.73762C21.1487 -0.579208 25.0462 -0.579208 27.1897 1.73762C27.9692 2.70297 29.1385 2.89604 30.3077 2.70297C30.6974 2.70297 31.0872 2.5099 31.2821 2.5099C34.0103 2.5099 36.5436 4.63366 36.7385 7.33663C36.7385 7.91584 36.9333 8.49505 37.3231 8.88119C37.7128 9.26733 38.1026 9.65346 38.6872 9.84653C40.6359 10.8119 42 12.7426 42 14.8663C42 15.8317 41.8051 16.797 41.2205 17.5693C41.0256 18.1485 40.8308 18.7277 40.8308 19.3069C40.8308 19.8861 41.0256 20.4653 41.2205 20.8515C41.6103 21.6238 42 22.5891 42 23.5545C42 25.6782 40.6359 27.6089 38.6872 28.5743C38.4923 28.7673 38.1026 28.7673 37.9077 29.1535C37.7128 29.3465 37.5179 29.5396 37.3231 29.7327C36.9333 30.1188 36.7385 30.698 36.7385 31.2772C36.5436 33.5941 34.7897 35.5247 32.4513 35.9109C31.8667 36.104 30.8923 36.104 30.3077 35.9109C29.1385 35.7178 27.9692 36.104 27.1897 36.8762C26.8 37.2624 26.4103 37.6485 26.0205 37.8416C25.0462 38.4208 24.0718 38.8069 22.9026 38.8069Z" fill="#4480D5"/>
<path fill-rule="evenodd" clip-rule="evenodd" d="M22.7532 5.80695C15.707 5.80695 10 11.5352 10 18.5951C10 25.655 15.707 31.3832 22.7532 31.3832C29.7994 31.3832 35.5065 25.655 35.5065 18.5951C35.5065 11.5352 29.7994 5.80695 22.7532 5.80695Z" fill="#1E65AE"/>
<path fill-rule="evenodd" clip-rule="evenodd" d="M22.7532 6.80695C15.707 6.80695 10 12.5352 10 19.5951C10 26.655 15.707 32.3832 22.7532 32.3832C29.7994 32.3832 35.5065 26.655 35.5065 19.5951C35.5065 12.5352 29.7994 6.80695 22.7532 6.80695Z" fill="#00E6B2"/>
<path fill-rule="evenodd" clip-rule="evenodd" d="M30.6629 13.1336C31.054 13.5236 31.0549 14.1568 30.6649 14.5479L22.5135 22.7235C22.1282 23.11 21.5041 23.1161 21.1112 22.7372L16.1824 17.984C15.7849 17.6006 15.7734 16.9675 16.1568 16.57C16.5402 16.1724 17.1732 16.161 17.5708 16.5443L21.7916 20.6149L29.2486 13.1357C29.6386 12.7446 30.2717 12.7437 30.6629 13.1336Z" fill="#0AC364"/>
<path fill-rule="evenodd" clip-rule="evenodd" d="M30.6629 14.1336C31.054 14.5236 31.0549 15.1568 30.6649 15.5479L22.5135 23.7235C22.1282 24.11 21.5041 24.1161 21.1112 23.7372L16.1824 18.984C15.7849 18.6006 15.7734 17.9675 16.1568 17.57C16.5402 17.1724 17.1732 17.161 17.5708 17.5443L21.7916 21.6149L29.2486 14.1357C29.6386 13.7446 30.2717 13.7437 30.6629 14.1336Z" fill="white"/>
</svg>
