<svg width="46" height="46" viewBox="0 0 46 46" fill="none" xmlns="http://www.w3.org/2000/svg">
<path d="M38.1277 41H7.87234C6.34043 41 5 39.6077 5 38.0166V7.98343C5 6.39227 6.34043 5 7.87234 5H38.1277C39.6596 5 41 6.39227 41 7.98343V38.0166C41 39.6077 39.6596 41 38.1277 41Z" stroke="black" stroke-width="2" stroke-miterlimit="10"/>
<path d="M5 11H41.0808" stroke="black" stroke-width="2" stroke-miterlimit="10"/>
<path d="M20 18L36 18" stroke="black" stroke-width="2" stroke-miterlimit="10" stroke-linecap="round" stroke-linejoin="round"/>
<path d="M10 18L14 18" stroke="black" stroke-width="2" stroke-miterlimit="10" stroke-linecap="round" stroke-linejoin="round"/>
<path d="M17 21C18.6569 21 20 19.6569 20 18C20 16.3431 18.6569 15 17 15C15.3431 15 14 16.3431 14 18C14 19.6569 15.3431 21 17 21Z" stroke="black" stroke-width="2" stroke-miterlimit="10" stroke-linecap="round" stroke-linejoin="round"/>
<path d="M20 34L36 34" stroke="black" stroke-width="2" stroke-miterlimit="10" stroke-linecap="round" stroke-linejoin="round"/>
<path d="M10 34L14 34" stroke="black" stroke-width="2" stroke-miterlimit="10" stroke-linecap="round" stroke-linejoin="round"/>
<path d="M17 37C18.6569 37 20 35.6569 20 34C20 32.3431 18.6569 31 17 31C15.3431 31 14 32.3431 14 34C14 35.6569 15.3431 37 17 37Z" stroke="black" stroke-width="2" stroke-miterlimit="10" stroke-linecap="round" stroke-linejoin="round"/>
<path d="M26 26L10 26" stroke="black" stroke-width="2" stroke-miterlimit="10" stroke-linecap="round" stroke-linejoin="round"/>
<path d="M36 26L32 26" stroke="black" stroke-width="2" stroke-miterlimit="10" stroke-linecap="round" stroke-linejoin="round"/>
<path d="M29 23C27.3431 23 26 24.3431 26 26C26 27.6569 27.3431 29 29 29C30.6569 29 32 27.6569 32 26C32 24.3431 30.6569 23 29 23Z" stroke="black" stroke-width="2" stroke-miterlimit="10" stroke-linecap="round" stroke-linejoin="round"/>
</svg>
