<svg width="46" height="46" viewBox="0 0 46 46" fill="none" xmlns="http://www.w3.org/2000/svg">
<path d="M7 14V39.7499C7 41.6617 8.53293 43 10.2575 43H35.7425C37.6587 43 39 41.4705 39 39.7499V14" stroke="black" stroke-width="2" stroke-miterlimit="10"/>
<path d="M43 16L23 3L3 16" stroke="black" stroke-width="2" stroke-miterlimit="10" stroke-linecap="round" stroke-linejoin="round"/>
<path d="M19 28H26" stroke="black" stroke-width="2" stroke-miterlimit="10" stroke-linecap="round" stroke-linejoin="round"/>
<path d="M19 22.5L22.4667 26L29 19" stroke="black" stroke-width="2" stroke-miterlimit="10" stroke-linecap="round" stroke-linejoin="round"/>
<path d="M23 34C27.9706 34 32 29.9706 32 25C32 20.0294 27.9706 16 23 16C18.0294 16 14 20.0294 14 25C14 29.9706 18.0294 34 23 34Z" stroke="black" stroke-width="2" stroke-miterlimit="10" stroke-linecap="round" stroke-linejoin="round"/>
</svg>
