<svg width="46" height="46" viewBox="0 0 46 46" fill="none" xmlns="http://www.w3.org/2000/svg">
<path d="M18.6174 33.5745C18.0968 33.5745 17.5762 33.5745 17.0556 33.5745C13.9321 33.5745 10.8087 32.5532 8.37931 30.6809L4.04116 31.0213C3.6941 31.0213 3.52058 31.0213 3.34705 30.6809C3.17353 30.5106 3.17353 30.1702 3.17353 30L4.38821 25.9149C3.52058 24.0426 3 22 3 19.7872C3 12.1277 9.42047 6 17.0556 6C20.8732 6 24.5172 7.53192 27.1201 10.0851M21 22H37M21 26H32M29.2025 38C21.3938 38 15.1469 31.7021 15.1469 24.2128C15.1469 16.7234 21.3938 10.2553 29.2025 10.2553C37.0111 10.2553 43.2581 16.5532 43.2581 24.0425C43.2581 26.0851 42.7375 28.2979 41.8699 30.1702L43.0846 34.2553C43.0846 34.5957 43.0846 34.7659 42.911 34.9362C42.7375 35.1064 42.3905 35.2766 42.2169 35.2766L37.8788 34.9362C35.4494 36.9787 32.3259 38 29.2025 38Z" stroke="black" stroke-width="2" stroke-miterlimit="10" stroke-linecap="round" stroke-linejoin="round"/>
</svg>
