<svg width="46" height="46" viewBox="0 0 46 46" fill="none" xmlns="http://www.w3.org/2000/svg">
<path d="M42.842 16.3269L38.6001 11.121C37.636 9.77126 36.0935 9.19281 34.3581 9H11.4132C9.87071 9 8.13538 9.77126 7.1713 11.121L3.1222 16.3269C2.92939 16.5198 2.73657 16.7126 2.73657 17.0982C2.73657 19.0263 3.70064 20.7617 5.43597 21.7258C6.59286 22.497 8.13538 22.497 8.13538 22.497C9.48508 22.497 10.8348 21.9186 11.7988 20.9545C13.9198 22.8826 17.1977 22.8826 19.3186 20.9545C21.4396 22.8826 24.7174 22.8826 26.8384 20.9545C28.9593 22.8826 32.2372 22.8826 34.3581 20.9545C35.3222 21.9186 36.6719 22.497 38.0216 22.497C38.0216 22.497 39.5641 22.497 40.721 21.7258C42.4563 20.7617 43.4204 19.0263 43.4204 17.0982C43.2276 16.7126 43.0348 16.5198 42.842 16.3269Z" stroke="black" stroke-width="2" stroke-miterlimit="10" stroke-linecap="round" stroke-linejoin="round"/>
<path d="M7 23V37.7447C7 39.4681 8.3494 41 10.2771 41H35.7229C37.4578 41 39 39.6596 39 37.7447V23" stroke="black" stroke-width="2" stroke-miterlimit="10" stroke-linecap="round" stroke-linejoin="round"/>
<path d="M18 41V28.6579C18 27.7368 18.7547 27 19.6981 27H26.3019C27.2453 27 28 27.7368 28 28.6579V41" stroke="black" stroke-width="2" stroke-miterlimit="10" stroke-linecap="round" stroke-linejoin="round"/>
</svg>
