<svg width="46" height="46" viewBox="0 0 46 46" fill="none" xmlns="http://www.w3.org/2000/svg">
<path d="M28.8421 31H17.1579C15.4211 31 14 29.5789 14 27.8421V16.1579C14 14.4211 15.4211 13 17.1579 13H28.8421C30.5789 13 32 14.4211 32 16.1579V27.8421C32 29.5789 30.5789 31 28.8421 31Z" stroke="black" stroke-width="2" stroke-miterlimit="10" stroke-linecap="round" stroke-linejoin="round"/>
<path d="M24.4835 23H21.5165C21.1165 23 20.755 22.7616 20.5974 22.3939L20.0809 21.1887C20.0275 21.0642 20 20.9302 20 20.7947V17.3699C20 17.1312 20.0854 16.9004 20.2407 16.7191L20.5578 16.3492C20.7478 16.1276 21.0252 16 21.3171 16H24.6829C24.9748 16 25.2522 16.1276 25.4422 16.3492L25.7593 16.7191C25.9146 16.9004 26 17.1312 26 17.3699V20.7947C26 20.9302 25.9725 21.0642 25.9191 21.1887L25.4026 22.3939C25.245 22.7616 24.8835 23 24.4835 23Z" stroke="black" stroke-width="2"/>
<path d="M17 30V27.7071C17 27.2544 17.1799 26.8201 17.5 26.5V26.5C17.8201 26.1799 18.2544 26 18.7071 26H27.2929C27.7456 26 28.1799 26.1799 28.5 26.5V26.5C28.8201 26.8201 29 27.2544 29 27.7071V30" stroke="black" stroke-width="2"/>
<rect x="7" y="3" width="32" height="38" rx="3" stroke="black" stroke-width="2"/>
</svg>
